<?xml version="1.0" standalone="no"?>
<!DOCTYPE svg PUBLIC "-//W3C//DTD SVG 20010904//EN"
 "http://www.w3.org/TR/2001/REC-SVG-20010904/DTD/svg10.dtd">
<svg version="1.0" xmlns="http://www.w3.org/2000/svg"
 width="808.000000pt" height="808.000000pt" viewBox="0 0 808.000000 808.000000"
 preserveAspectRatio="xMidYMid meet">
<metadata>
Created by potrace 1.11, written by Peter Selinger 2001-2013
</metadata>
<g transform="translate(0.000000,808.000000) scale(0.100000,-0.100000)"
fill="#000000" stroke="none">
<path d="M4865 7013 c-85 -18 -170 -62 -210 -110 -27 -33 -29 -42 -31 -122 -2
-161 -173 -767 -358 -1271 -32 -85 -61 -160 -65 -168 -15 -27 -145 253 -314
678 -159 399 -260 638 -326 768 -17 34 -31 70 -31 81 0 11 -11 33 -25 49 -65
77 -274 62 -369 -26 -92 -87 -128 -326 -91 -612 27 -214 35 -334 45 -710 5
-206 16 -532 25 -725 25 -611 25 -595 4 -635 -11 -19 -19 -47 -19 -62 0 -37
56 -107 109 -135 105 -55 285 -12 351 84 l23 34 -6 282 c-4 155 -13 437 -21
627 -9 190 -18 410 -21 490 -4 88 -3 141 3 135 5 -5 28 -59 52 -120 24 -60
101 -223 170 -360 103 -202 138 -284 184 -423 54 -163 56 -173 41 -196 -27
-40 -16 -77 30 -104 35 -20 50 -23 127 -19 78 3 95 7 171 45 50 25 98 57 117
78 28 32 31 42 26 75 -4 27 3 69 24 144 16 58 41 163 55 233 15 70 33 156 41
191 15 62 84 274 110 336 l12 30 6 -35 c20 -124 28 -378 22 -740 -7 -413 -7
-409 39 -668 16 -91 16 -93 -4 -119 -29 -36 -27 -84 5 -114 23 -22 34 -24 123
-24 89 0 102 3 163 33 109 54 158 133 158 257 0 34 -12 123 -27 196 -30 154
-34 305 -19 724 7 217 6 271 -18 566 -23 287 -26 372 -24 700 3 360 2 377 -19
452 -17 60 -21 92 -16 138 l6 59 -36 15 c-45 18 -100 18 -192 -2z"/>
</g>
</svg>
